<svg width="32" height="32" viewBox="0 0 32 32" fill="none" xmlns="http://www.w3.org/2000/svg">
<g id="fullscreen" clip-path="url(#clip0_1193_48101)">
<g id="Group 360" filter="url(#filter0_d_1193_48101)">
<path id="Union" d="M21 4C20.4477 4 20 4.44772 20 5C20 5.55228 20.4477 6 21 6H26V11C26 11.5523 26.4477 12 27 12C27.5523 12 28 11.5523 28 11V5C28 4.44772 27.5523 4 27 4H21Z" fill="white"/>
<path id="Union_2" d="M21 28C20.4477 28 20 27.5523 20 27C20 26.4477 20.4477 26 21 26H26V21C26 20.4477 26.4477 20 27 20C27.5523 20 28 20.4477 28 21V27C28 27.5523 27.5523 28 27 28H21Z" fill="white"/>
<path id="Union_3" d="M11 4C11.5523 4 12 4.44772 12 5C12 5.55228 11.5523 6 11 6H6V11C6 11.5523 5.55228 12 5 12C4.44772 12 4 11.5523 4 11V5C4 4.44772 4.44772 4 5 4H11Z" fill="white"/>
<path id="Union_4" d="M11 28C11.5523 28 12 27.5523 12 27C12 26.4477 11.5523 26 11 26H6V21C6 20.4477 5.55228 20 5 20C4.44772 20 4 20.4477 4 21V27C4 27.5523 4.44772 28 5 28H11Z" fill="white"/>
</g>
</g>
<defs>
<filter id="filter0_d_1193_48101" x="0" y="0.5" width="32" height="32" filterUnits="userSpaceOnUse" color-interpolation-filters="sRGB">
<feFlood flood-opacity="0" result="BackgroundImageFix"/>
<feColorMatrix in="SourceAlpha" type="matrix" values="0 0 0 0 0 0 0 0 0 0 0 0 0 0 0 0 0 0 127 0" result="hardAlpha"/>
<feOffset dy="0.5"/>
<feGaussianBlur stdDeviation="2"/>
<feComposite in2="hardAlpha" operator="out"/>
<feColorMatrix type="matrix" values="0 0 0 0 0 0 0 0 0 0 0 0 0 0 0 0 0 0 0.5 0"/>
<feBlend mode="normal" in2="BackgroundImageFix" result="effect1_dropShadow_1193_48101"/>
<feBlend mode="normal" in="SourceGraphic" in2="effect1_dropShadow_1193_48101" result="shape"/>
</filter>
<clipPath id="clip0_1193_48101">
<rect width="32" height="32" fill="white"/>
</clipPath>
</defs>
</svg>
